<?xml version="1.0" encoding="UTF-8"?>
<svg width="32px" height="32px" viewBox="0 0 32 32" version="1.1" xmlns="http://www.w3.org/2000/svg">
    <title>Vite Logo</title>
    <g stroke="none" stroke-width="1" fill="none" fill-rule="evenodd">
        <path d="M29.8836,6.146 L16.7418,29.6987 C16.3697,30.3845 15.3241,30.3845 14.9519,29.6987 L1.8102,6.146 C1.4089,5.4091 1.9445,4.4796 2.8061,4.5716 L15.8469,6.3462 L28.8877,4.5716 C29.7493,4.4796 30.2849,5.4091 29.8836,6.146 Z" fill="#41B883" fill-rule="nonzero"></path>
        <path d="M22.2581,0.2501 L15.8469,6.3462 L9.4356,0.2501 C9.0634,-0.0833 8.5278,-0.0833 8.1557,0.2501 C7.7835,0.5835 7.7835,1.1429 8.1557,1.4763 L15.8469,8.7556 L23.538,1.4763 C23.9102,1.1429 23.9102,0.5835 23.538,0.2501 C23.1659,-0.0833 22.6303,-0.0833 22.2581,0.2501 Z" fill="#35495E" fill-rule="nonzero"></path>
    </g>
</svg>
